PathFileType  4	(X/Y/Z) C:\Users\MoBL3\Box\OA_GRF_OpenCap\GRF_Tracking_12_18_24\Subject3_walking1
DataRate	CameraRate	NumFrames	NumMarkers	Units	OrigDataRate	OrigDataStartFrame	OrigNumFrames
100.0		100.0		4		177		 mm	100.0	83	132
Frame#	Time	r_knee			r_shank_antsup			r_ankle			r_calc			r_5meta			r_toe			L_knee			L_shank_antsup			L_ankle			L_calc			L_5meta			L_toe			r_sh2			r_sh3			r_sh4			L_sh2			L_sh3			r_thigh1			r_thigh2			r_thigh3			r_thigh4			r_thigh5			L_thigh1			L_thigh2			L_thigh3			L_thigh4			r.ASIS			r.PSIS			L.ASIS			L.PSIS			C7			R_Shoulder			L_Shoulder			R_Sternum			L_Sternum			R_humerus			R_elbow_med			R_elbow_lat			R_forearm			R_wrist_radius			R_wrist_ulna			L_humerus			L_elbow_med			L_elbow_lat			L_forearm			L_wrist_radius			L_wrist_ulna			R_HJC			L_HJC			R_HJC_reg			L_HJC_reg			Neck			RShoulder			RElbow			RWrist			LShoulder			LElbow			LWrist			midHip			RHip			RKnee			RAnkle			LHip			LKnee			LAnkle			LBigToe			LSmallToe			LHeel			RBigToe			RSmallToe			RHeel			C7_study			r_shoulder_study			L_shoulder_study			r.ASIS_study			L.ASIS_study			r.PSIS_study			L.PSIS_study			r_knee_study			L_knee_study			r_mknee_study			L_mknee_study			r_ankle_study			L_ankle_study			r_mankle_study			L_mankle_study			r_calc_study			L_calc_study			r_toe_study			L_toe_study			r_5meta_study			L_5meta_study			r_thigh1_study			r_thigh2_study			r_thigh3_study			L_thigh1_study			L_thigh2_study			L_thigh3_study			r_sh1_study			r_sh2_study			r_sh3_study			L_sh1_study			L_sh2_study			L_sh3_study			RHJC_study			LHJC_study			r_lelbow_study			L_lelbow_study			r_melbow_study			L_melbow_study			r_lwrist_study			L_lwrist_study			r_mwrist_study			L_mwrist_study			Neck_offsetRemoved			RShoulder_offsetRemoved			RElbow_offsetRemoved			RWrist_offsetRemoved			LShoulder_offsetRemoved			LElbow_offsetRemoved			LWrist_offsetRemoved			midHip_offsetRemoved			RHip_offsetRemoved			RKnee_offsetRemoved			RAnkle_offsetRemoved			LHip_offsetRemoved			LKnee_offsetRemoved			LAnkle_offsetRemoved			LBigToe_offsetRemoved			LSmallToe_offsetRemoved			LHeel_offsetRemoved			RBigToe_offsetRemoved			RSmallToe_offsetRemoved			RHeel_offsetRemoved			C7_study_offsetRemoved			r_shoulder_study_offsetRemoved			L_shoulder_study_offsetRemoved			r.ASIS_study_offsetRemoved			L.ASIS_study_offsetRemoved			r.PSIS_study_offsetRemoved			L.PSIS_study_offsetRemoved			r_knee_study_offsetRemoved			L_knee_study_offsetRemoved			r_mknee_study_offsetRemoved			L_mknee_study_offsetRemoved			r_ankle_study_offsetRemoved			L_ankle_study_offsetRemoved			r_mankle_study_offsetRemoved			L_mankle_study_offsetRemoved			r_calc_study_offsetRemoved			L_calc_study_offsetRemoved			r_toe_study_offsetRemoved			L_toe_study_offsetRemoved			r_5meta_study_offsetRemoved			L_5meta_study_offsetRemoved			r_thigh1_study_offsetRemoved			r_thigh2_study_offsetRemoved			r_thigh3_study_offsetRemoved			L_thigh1_study_offsetRemoved			L_thigh2_study_offsetRemoved			L_thigh3_study_offsetRemoved			r_sh1_study_offsetRemoved			r_sh2_study_offsetRemoved			r_sh3_study_offsetRemoved			L_sh1_study_offsetRemoved			L_sh2_study_offsetRemoved			L_sh3_study_offsetRemoved			RHJC_study_offsetRemoved			LHJC_study_offsetRemoved			r_lelbow_study_offsetRemoved			L_lelbow_study_offsetRemoved			r_melbow_study_offsetRemoved			L_melbow_study_offsetRemoved			r_lwrist_study_offsetRemoved			L_lwrist_study_offsetRemoved			r_mwrist_study_offsetRemoved			L_mwrist_study_offsetRemoved			
		X1	Y1	Z1	X2	Y2	Z2	X3	Y3	Z3	X4	Y4	Z4	X5	Y5	Z5	X6	Y6	Z6	X7	Y7	Z7	X8	Y8	Z8	X9	Y9	Z9	X10	Y10	Z10	X11	Y11	Z11	X12	Y12	Z12	X13	Y13	Z13	X14	Y14	Z14	X15	Y15	Z15	X16	Y16	Z16	X17	Y17	Z17	X18	Y18	Z18	X19	Y19	Z19	X20	Y20	Z20	X21	Y21	Z21	X22	Y22	Z22	X23	Y23	Z23	X24	Y24	Z24	X25	Y25	Z25	X26	Y26	Z26	X27	Y27	Z27	X28	Y28	Z28	X29	Y29	Z29	X30	Y30	Z30	X31	Y31	Z31	X32	Y32	Z32	X33	Y33	Z33	X34	Y34	Z34	X35	Y35	Z35	X36	Y36	Z36	X37	Y37	Z37	X38	Y38	Z38	X39	Y39	Z39	X40	Y40	Z40	X41	Y41	Z41	X42	Y42	Z42	X43	Y43	Z43	X44	Y44	Z44	X45	Y45	Z45	X46	Y46	Z46	X47	Y47	Z47	X48	Y48	Z48	X49	Y49	Z49	X50	Y50	Z50	X51	Y51	Z51	X52	Y52	Z52	X53	Y53	Z53	X54	Y54	Z54	X55	Y55	Z55	X56	Y56	Z56	X57	Y57	Z57	X58	Y58	Z58	X59	Y59	Z59	X60	Y60	Z60	X61	Y61	Z61	X62	Y62	Z62	X63	Y63	Z63	X64	Y64	Z64	X65	Y65	Z65	X66	Y66	Z66	X67	Y67	Z67	X68	Y68	Z68	X69	Y69	Z69	X70	Y70	Z70	X71	Y71	Z71	X72	Y72	Z72	X73	Y73	Z73	X74	Y74	Z74	X75	Y75	Z75	X76	Y76	Z76	X77	Y77	Z77	X78	Y78	Z78	X79	Y79	Z79	X80	Y80	Z80	X81	Y81	Z81	X82	Y82	Z82	X83	Y83	Z83	X84	Y84	Z84	X85	Y85	Z85	X86	Y86	Z86	X87	Y87	Z87	X88	Y88	Z88	X89	Y89	Z89	X90	Y90	Z90	X91	Y91	Z91	X92	Y92	Z92	X93	Y93	Z93	X94	Y94	Z94	X95	Y95	Z95	X96	Y96	Z96	X97	Y97	Z97	X98	Y98	Z98	X99	Y99	Z99	X100	Y100	Z100	X101	Y101	Z101	X102	Y102	Z102	X103	Y103	Z103	X104	Y104	Z104	X105	Y105	Z105	X106	Y106	Z106	X107	Y107	Z107	X108	Y108	Z108	X109	Y109	Z109	X110	Y110	Z110	X111	Y111	Z111	X112	Y112	Z112	X113	Y113	Z113	X114	Y114	Z114	X115	Y115	Z115	X116	Y116	Z116	X117	Y117	Z117	X118	Y118	Z118	X119	Y119	Z119	X120	Y120	Z120	X121	Y121	Z121	X122	Y122	Z122	X123	Y123	Z123	X124	Y124	Z124	X125	Y125	Z125	X126	Y126	Z126	X127	Y127	Z127	X128	Y128	Z128	X129	Y129	Z129	X130	Y130	Z130	X131	Y131	Z131	X132	Y132	Z132	X133	Y133	Z133	X134	Y134	Z134	X135	Y135	Z135	X136	Y136	Z136	X137	Y137	Z137	X138	Y138	Z138	X139	Y139	Z139	X140	Y140	Z140	X141	Y141	Z141	X142	Y142	Z142	X143	Y143	Z143	X144	Y144	Z144	X145	Y145	Z145	X146	Y146	Z146	X147	Y147	Z147	X148	Y148	Z148	X149	Y149	Z149	X150	Y150	Z150	X151	Y151	Z151	X152	Y152	Z152	X153	Y153	Z153	X154	Y154	Z154	X155	Y155	Z155	X156	Y156	Z156	X157	Y157	Z157	X158	Y158	Z158	X159	Y159	Z159	X160	Y160	Z160	X161	Y161	Z161	X162	Y162	Z162	X163	Y163	Z163	X164	Y164	Z164	X165	Y165	Z165	X166	Y166	Z166	X167	Y167	Z167	X168	Y168	Z168	X169	Y169	Z169	X170	Y170	Z170	X171	Y171	Z171	X172	Y172	Z172	X173	Y173	Z173	X174	Y174	Z174	X175	Y175	Z175	X176	Y176	Z176	X177	Y177	Z177	

83	0.82000	925.824	455.862	-86.134	880.938	343.449	-108.694	624.735	249.028	-147.876	573.977	268.274	-207.283	637.852	121.047	-124.002	675.899	100.530	-162.888	914.849	476.788	-377.418	945.261	379.050	-315.320	864.885	91.963	-329.920	810.583	57.949	-282.511	982.340	43.957	-330.983	1016.203	63.446	-273.309	787.500	287.376	-131.840	840.510	389.809	-60.938	740.447	346.403	-91.350	916.049	391.779	-397.048	906.071	271.377	-396.166	940.507	765.018	-84.174	974.874	660.173	-71.972	927.261	622.535	-40.226	836.578	731.553	-59.732	870.320	622.116	-52.261	959.881	774.661	-400.616	979.271	639.035	-385.679	860.711	761.052	-446.842	878.246	622.519	-423.573	944.809	917.846	-114.766	767.449	971.185	-188.372	963.894	944.323	-356.931	770.666	986.184	-304.921	778.507	1429.959	-232.800	829.222	1397.301	-79.399	845.560	1407.096	-389.520	907.315	1384.408	-207.656	911.047	1382.699	-252.149	840.212	1268.408	-15.009	753.272	1077.936	-70.702	781.840	1080.785	-0.522	830.275	961.828	9.445	856.186	860.775	2.853	822.705	853.969	21.879	869.478	1259.736	-457.077	811.481	1065.048	-405.106	816.942	1077.236	-476.946	869.891	996.667	-510.616	918.745	875.810	-514.019	890.644	865.446	-525.962	855.593	851.494	-154.214	873.528	869.038	-341.921	877.826	852.010	-159.448	882.239	872.591	-319.339	849.167	1323.253	-228.255	845.102	1318.735	-74.186	800.560	1073.827	-28.116	830.956	841.776	-6.964	862.795	1328.194	-381.974	846.517	1076.798	-444.541	893.644	847.494	-493.119	880.119	893.428	-234.785	870.567	891.544	-126.256	955.151	449.486	-144.041	644.592	184.571	-178.251	894.885	896.432	-343.007	904.671	461.443	-319.499	873.192	63.476	-286.911	1029.555	16.780	-271.824	1023.799	18.429	-273.157	835.318	28.810	-280.271	659.096	21.817	-148.075	658.465	33.334	-146.234	601.534	177.709	-191.559	777.776	1390.973	-227.571	841.963	1380.446	-89.972	865.078	1382.153	-352.928	921.195	953.611	-80.178	941.320	975.133	-372.088	765.324	988.446	-178.872	774.533	989.703	-289.896	938.854	478.154	-85.911	931.360	486.821	-351.978	945.564	484.586	-196.064	924.059	497.537	-244.964	627.602	212.936	-131.710	864.037	75.111	-318.761	644.144	205.387	-213.743	877.086	84.396	-237.048	580.779	254.374	-182.263	796.235	43.635	-271.767	658.844	82.494	-174.586	994.871	29.409	-269.681	637.090	116.762	-125.585	957.061	25.063	-324.817	959.944	757.361	-69.759	949.668	651.296	-57.862	849.466	743.659	-45.983	975.295	756.837	-377.288	955.118	645.000	-389.864	866.617	746.639	-416.840	846.692	386.700	-93.630	773.702	285.117	-96.496	739.686	344.709	-91.565	915.272	358.147	-349.745	925.101	233.583	-346.142	861.497	248.133	-356.703	840.642	888.835	-147.861	854.151	902.744	-324.442	805.940	1095.283	8.252	843.517	1096.713	-481.532	793.878	1079.122	-74.057	835.958	1073.861	-402.872	882.288	862.085	-0.616	933.381	874.342	-486.186	811.074	850.568	17.249	865.651	858.732	-500.949	853.049	1336.334	-231.846	848.984	1331.816	-77.777	804.442	1086.908	-31.707	834.838	854.857	-10.555	866.677	1341.274	-385.565	850.399	1089.878	-448.132	897.526	860.575	-496.710	884.001	906.509	-238.376	874.449	904.625	-129.847	959.034	462.567	-147.632	648.474	197.651	-181.842	898.767	909.513	-346.598	908.553	474.524	-323.090	877.074	76.557	-290.502	1033.437	29.860	-275.415	1027.681	31.510	-276.748	839.201	41.890	-283.862	662.979	34.898	-151.666	662.347	46.415	-149.825	605.416	190.790	-195.150	781.658	1404.054	-231.162	845.845	1393.527	-93.563	868.960	1395.234	-356.519	925.077	966.692	-83.770	945.202	988.214	-375.679	769.206	1001.527	-182.463	778.415	1002.784	-293.487	942.736	491.234	-89.502	935.243	499.902	-355.569	949.446	497.667	-199.655	927.941	510.617	-248.555	631.484	226.017	-135.301	867.919	88.191	-322.352	648.026	218.467	-217.334	880.968	97.477	-240.639	584.661	267.454	-185.854	800.117	56.716	-275.359	662.727	95.575	-178.177	998.753	42.490	-273.272	640.972	129.843	-129.176	960.943	38.143	-328.408	963.826	770.442	-73.350	953.551	664.377	-61.453	853.348	756.739	-49.574	979.177	769.917	-380.879	959.000	658.081	-393.455	870.499	759.720	-420.431	850.574	399.781	-97.221	777.585	298.198	-100.087	743.568	357.789	-95.156	919.155	371.228	-353.336	928.983	246.664	-349.733	865.379	261.213	-360.294	844.524	901.916	-151.452	858.033	915.824	-328.033	809.822	1108.364	4.661	847.400	1109.794	-485.123	797.760	1092.203	-77.648	839.840	1086.942	-406.463	886.171	875.166	-4.207	937.263	887.422	-489.777	814.956	863.649	13.658	869.533	871.812	-504.540
84	0.83000	950.151	461.028	-85.461	908.044	347.805	-107.518	655.442	244.834	-144.881	602.774	260.119	-204.171	675.718	118.492	-118.837	715.235	100.095	-157.635	918.996	477.762	-376.855	948.481	379.826	-314.614	865.173	93.115	-329.165	810.617	58.993	-282.259	982.455	45.170	-330.900	1016.341	64.437	-273.158	816.709	288.559	-129.920	866.572	393.068	-59.670	768.058	346.335	-89.445	919.342	392.644	-396.455	908.315	272.390	-395.558	954.536	770.532	-82.847	992.134	666.792	-71.210	945.821	627.490	-39.134	851.476	733.380	-58.975	889.034	625.429	-51.031	969.009	775.002	-399.305	985.990	638.951	-384.481	869.694	763.197	-445.903	884.642	624.155	-422.830	955.859	921.037	-114.660	778.454	974.052	-187.368	974.700	945.774	-356.566	781.747	988.463	-304.071	790.572	1432.318	-232.499	840.487	1399.352	-78.833	858.422	1409.485	-388.654	919.150	1386.303	-206.639	923.258	1384.637	-251.094	848.947	1270.348	-14.281	759.805	1081.505	-71.885	787.045	1083.723	-1.079	833.037	963.689	9.418	856.954	862.304	3.382	822.921	856.174	21.921	884.243	1262.778	-456.350	828.068	1066.874	-406.878	835.033	1079.460	-478.311	890.878	1000.529	-511.054	943.668	881.406	-513.665	915.928	870.198	-526.188	866.622	854.476	-153.002	884.035	870.863	-340.861	888.691	854.944	-158.982	893.197	874.670	-318.674	860.166	1325.260	-227.927	854.720	1320.702	-73.916	808.343	1075.887	-27.438	835.287	845.655	-4.985	875.182	1330.262	-381.512	862.262	1078.879	-444.972	916.216	851.977	-491.892	891.643	896.931	-233.807	881.593	895.232	-125.536	977.932	455.481	-144.246	678.709	179.226	-173.144	906.927	899.751	-341.741	910.652	460.750	-319.081	874.079	65.021	-286.185	1028.974	17.917	-272.029	1023.095	19.458	-273.578	836.984	30.706	-279.125	699.123	16.614	-142.071	698.371	27.403	-140.085	637.661	169.476	-185.807	789.947	1393.394	-227.146	853.924	1382.514	-89.518	878.010	1384.873	-351.865	933.805	957.626	-79.960	951.886	977.020	-372.414	777.608	992.046	-177.672	785.975	992.442	-288.959	961.323	484.169	-85.410	933.545	487.959	-351.865	967.792	490.587	-195.798	927.004	498.710	-244.776	660.482	205.914	-129.802	864.320	75.908	-318.572	677.416	199.019	-211.805	878.126	85.233	-236.703	611.370	244.004	-180.968	796.707	44.997	-271.045	699.091	77.943	-171.014	995.548	29.329	-269.970	675.585	111.660	-122.827	957.679	25.277	-324.855	975.591	764.081	-68.998	968.209	657.763	-57.125	865.468	747.778	-44.463	983.000	757.028	-377.070	960.730	645.602	-389.832	874.045	749.233	-416.229	872.585	389.468	-92.791	803.529	284.691	-95.032	767.125	342.529	-90.242	916.788	359.616	-349.432	925.693	234.625	-345.995	862.315	249.282	-356.098	852.835	892.885	-146.472	865.198	905.572	-323.300	814.031	1098.246	8.242	859.846	1099.662	-481.642	802.412	1082.570	-73.979	851.347	1076.719	-403.103	884.913	863.665	0.155	953.481	879.549	-485.793	813.323	853.641	16.952	886.248	862.948	-500.891	864.048	1338.341	-231.518	858.602	1333.783	-77.507	812.226	1088.968	-31.029	839.169	858.735	-8.576	879.065	1343.343	-385.103	866.144	1091.960	-448.563	920.098	865.058	-495.483	895.525	910.011	-237.398	885.475	908.313	-129.127	981.814	468.562	-147.837	682.591	192.307	-176.735	910.809	912.832	-345.332	914.534	473.831	-322.672	877.961	78.102	-289.776	1032.856	30.998	-275.620	1026.977	32.539	-277.169	840.866	43.787	-282.716	703.005	29.695	-145.662	702.253	40.484	-143.676	641.543	182.557	-189.398	793.829	1406.475	-230.737	857.807	1395.595	-93.109	881.892	1397.954	-355.456	937.687	970.706	-83.551	955.768	990.100	-376.005	781.491	1005.127	-181.264	789.857	1005.523	-292.550	965.205	497.250	-89.001	937.427	501.040	-355.456	971.674	503.668	-199.389	930.886	511.791	-248.367	664.364	218.994	-133.393	868.202	88.989	-322.163	681.298	212.100	-215.396	882.008	98.314	-240.294	615.252	257.085	-184.559	800.590	58.077	-274.636	702.973	91.023	-174.605	999.430	42.410	-273.561	679.467	124.740	-126.418	961.561	38.357	-328.446	979.473	777.161	-72.589	972.091	670.844	-60.716	869.350	760.858	-48.054	986.882	770.109	-380.661	964.612	658.683	-393.423	877.927	762.314	-419.820	876.467	402.549	-96.382	807.411	297.772	-98.623	771.007	355.610	-93.833	920.670	372.697	-353.023	929.575	247.706	-349.586	866.197	262.363	-359.689	856.717	905.966	-150.064	869.080	918.653	-326.891	817.914	1111.327	4.651	863.728	1112.742	-485.233	806.294	1095.651	-77.570	855.229	1089.800	-406.695	888.795	876.745	-3.436	957.363	892.630	-489.384	817.206	866.722	13.361	890.130	876.029	-504.482
85	0.84000	974.058	466.752	-85.021	935.034	352.708	-106.590	686.927	240.032	-141.721	632.467	250.959	-200.736	714.671	115.726	-113.557	755.636	99.703	-152.318	923.163	479.167	-376.290	951.699	380.974	-313.894	865.447	94.669	-328.387	810.713	60.441	-282.008	982.577	46.806	-330.820	1016.471	65.854	-273.033	846.258	289.697	-128.048	892.509	396.483	-58.516	795.901	345.991	-87.538	922.687	393.891	-395.820	910.655	273.779	-394.935	968.466	776.332	-81.629	1009.209	673.791	-70.702	964.243	632.927	-38.140	866.419	735.722	-58.121	907.622	629.312	-49.734	978.065	775.642	-397.872	992.724	639.260	-383.112	878.596	765.639	-444.951	891.057	626.106	-421.990	966.822	924.634	-114.393	789.348	977.179	-186.484	985.523	947.429	-355.972	792.787	990.978	-303.367	802.568	1434.930	-232.121	851.736	1401.714	-78.249	871.184	1412.224	-387.729	930.938	1388.469	-205.666	935.417	1386.896	-250.078	857.581	1272.663	-13.503	766.552	1085.453	-73.189	792.255	1087.100	-1.717	835.685	966.021	9.479	857.749	864.495	4.199	823.041	858.890	21.901	898.896	1266.239	-455.650	844.652	1069.169	-408.491	852.937	1082.207	-479.550	911.673	1005.012	-511.370	968.362	887.758	-513.204	941.018	875.728	-526.274	877.549	857.812	-151.680	894.623	872.888	-339.677	899.532	858.158	-158.375	904.222	876.991	-317.825	870.936	1327.574	-227.532	864.077	1323.034	-73.583	816.804	1078.067	-26.491	841.007	849.334	-2.471	887.368	1332.588	-380.983	878.214	1081.166	-445.394	939.592	857.072	-490.815	903.215	899.806	-232.752	892.630	898.381	-124.762	1000.170	461.794	-144.440	712.275	172.592	-167.728	919.071	902.312	-340.374	916.841	459.933	-318.261	874.753	67.193	-285.656	1028.104	19.427	-272.352	1022.129	20.861	-274.163	838.905	33.347	-278.246	740.091	13.644	-135.849	739.197	23.189	-133.819	673.371	160.038	-179.609	801.970	1395.153	-226.599	865.870	1383.933	-89.033	890.705	1386.905	-350.815	946.476	961.029	-79.642	962.409	978.314	-372.620	789.956	994.980	-176.338	797.388	994.594	-287.946	983.105	489.671	-84.851	935.943	488.701	-351.640	989.340	496.011	-195.549	930.198	499.485	-244.469	693.856	197.927	-127.570	864.755	76.540	-318.263	711.217	191.682	-209.571	879.312	85.860	-236.252	642.571	232.339	-179.348	797.312	46.225	-270.270	739.963	72.921	-167.069	996.169	28.966	-270.079	714.719	105.897	-119.693	958.273	25.263	-324.742	991.016	770.052	-68.196	986.347	663.521	-56.378	881.302	751.350	-42.922	990.658	756.722	-376.807	966.419	645.777	-389.687	881.507	751.295	-415.508	898.160	391.593	-91.818	833.425	283.616	-93.340	794.525	339.506	-88.691	918.572	360.692	-348.995	926.473	235.372	-345.761	863.362	250.210	-355.384	865.073	896.313	-145.027	876.289	907.783	-322.037	822.319	1100.651	8.344	876.150	1102.006	-481.625	811.149	1085.407	-73.776	866.804	1078.993	-403.253	888.011	864.974	0.926	973.686	884.404	-485.303	816.188	856.362	16.712	907.036	866.781	-500.722	874.818	1340.655	-231.123	867.959	1336.114	-77.174	820.686	1091.147	-30.082	844.890	862.415	-6.062	891.250	1345.669	-384.574	882.097	1094.247	-448.985	943.474	870.153	-494.406	907.097	912.886	-236.343	896.512	911.462	-128.353	1004.052	474.875	-148.031	716.157	185.672	-171.319	922.953	915.392	-343.965	920.723	473.014	-321.852	878.635	80.273	-289.247	1031.986	32.508	-275.943	1026.011	33.942	-277.754	842.787	46.428	-281.837	743.973	26.725	-139.440	743.079	36.269	-137.410	677.254	173.118	-183.200	805.853	1408.234	-230.190	869.752	1397.014	-92.624	894.587	1399.986	-354.406	950.358	974.110	-83.233	966.291	991.395	-376.211	793.838	1008.061	-179.929	801.270	1007.674	-291.537	986.987	502.752	-88.442	939.825	501.782	-355.231	993.222	509.092	-199.140	934.080	512.566	-248.060	697.738	211.008	-131.161	868.637	89.621	-321.854	715.099	204.763	-213.162	883.195	98.941	-239.843	646.453	245.420	-182.939	801.194	59.306	-273.861	743.845	86.002	-170.660	1000.051	42.047	-273.670	718.601	118.978	-123.284	962.155	38.344	-328.333	994.898	783.133	-71.787	990.229	676.602	-59.969	885.184	764.431	-46.513	994.540	769.803	-380.398	970.301	658.857	-393.278	885.389	764.376	-419.099	902.042	404.674	-95.409	837.307	296.697	-96.931	798.407	352.586	-92.282	922.455	373.773	-352.586	930.355	248.452	-349.352	867.244	263.291	-358.975	868.955	909.394	-148.618	880.171	920.864	-325.629	826.201	1113.731	4.753	880.032	1115.087	-485.216	815.031	1098.488	-77.367	870.686	1092.074	-406.844	891.893	878.054	-2.665	977.568	897.484	-488.894	820.070	869.443	13.121	910.919	879.861	-504.313
86	0.85000	997.423	472.974	-84.814	961.935	358.032	-105.872	719.208	234.686	-138.405	663.137	240.951	-197.004	754.677	112.908	-108.251	796.968	99.449	-147.025	927.445	480.952	-375.703	954.911	382.458	-313.133	865.689	96.632	-327.670	810.889	62.278	-281.782	982.690	48.818	-330.749	1016.586	67.659	-272.940	876.122	290.831	-126.221	918.351	399.982	-57.488	823.990	345.351	-85.590	926.167	395.493	-395.140	913.156	275.510	-394.291	982.276	782.335	-80.535	1026.064	681.089	-70.439	982.486	638.785	-37.270	881.394	738.606	-57.110	926.014	633.698	-48.411	987.060	776.538	-396.360	999.521	639.931	-381.654	887.452	768.328	-444.005	897.573	628.348	-421.091	977.707	928.549	-113.906	800.134	980.458	-185.713	996.359	949.257	-355.145	803.778	993.663	-302.770	814.491	1437.770	-231.666	862.946	1404.335	-77.642	883.868	1415.271	-386.755	942.665	1390.888	-204.716	947.495	1389.436	-249.086	866.136	1275.276	-12.673	773.538	1089.672	-74.538	797.577	1090.834	-2.408	838.309	968.768	9.635	858.566	867.184	5.203	823.173	862.050	21.836	913.439	1270.054	-454.970	861.272	1071.862	-409.920	870.608	1085.416	-480.658	932.221	1010.020	-511.564	992.768	894.772	-512.631	965.852	881.928	-526.209	888.386	861.410	-150.245	905.305	875.062	-338.363	910.375	861.522	-157.603	915.328	879.487	-316.798	881.651	1330.128	-227.018	873.449	1325.678	-73.089	826.068	1080.289	-25.209	847.764	852.457	0.375	899.433	1335.095	-380.379	894.292	1083.706	-445.691	963.427	862.771	-489.769	914.719	902.137	-231.577	903.682	901.066	-123.837	1021.657	468.279	-144.574	745.070	164.647	-162.382	931.070	904.219	-338.917	923.114	459.182	-317.124	875.173	69.950	-285.363	1027.052	21.227	-272.777	1021.059	22.578	-274.898	840.886	36.692	-277.684	782.145	12.959	-129.566	780.998	20.989	-127.599	708.135	149.518	-173.538	813.734	1396.386	-225.895	877.673	1384.868	-88.472	903.053	1388.365	-349.740	959.041	963.906	-79.145	972.797	979.153	-372.614	802.214	997.311	-174.832	808.645	996.263	-286.829	1003.963	494.678	-84.195	938.594	489.181	-351.262	1009.999	500.895	-195.260	933.657	499.982	-243.997	727.455	189.292	-124.995	865.248	77.163	-317.808	745.261	183.691	-207.024	880.554	86.423	-235.696	674.173	219.671	-177.380	797.961	47.456	-269.442	781.119	67.858	-162.759	996.637	28.508	-270.010	754.173	99.856	-116.155	958.725	25.189	-324.478	1006.054	775.295	-67.283	1003.887	668.575	-55.565	896.781	754.407	-41.330	998.236	756.063	-376.465	972.161	645.654	-389.385	888.944	752.941	-414.648	923.174	393.177	-90.670	863.119	282.075	-91.400	821.661	335.823	-86.887	920.609	361.502	-348.399	927.405	235.960	-345.405	864.615	251.084	-354.541	877.222	899.189	-143.492	887.317	909.470	-320.618	830.746	1102.614	8.613	892.342	1103.878	-481.439	820.034	1087.743	-73.380	882.255	1080.812	-403.272	891.569	866.097	1.765	993.979	889.075	-484.657	819.662	858.813	16.624	928.010	870.370	-500.411	885.533	1343.209	-230.609	877.331	1338.759	-76.680	829.950	1093.370	-28.800	851.646	865.537	-3.216	903.315	1348.176	-383.970	898.175	1096.787	-449.282	967.309	875.852	-493.360	918.601	915.218	-235.168	907.564	914.147	-127.428	1025.539	481.360	-148.165	748.952	177.728	-165.974	934.952	917.300	-342.508	926.996	472.262	-320.715	879.055	83.030	-288.954	1030.934	34.308	-276.368	1024.941	35.658	-278.489	844.769	49.773	-281.275	786.027	26.039	-133.157	784.880	34.070	-131.190	712.017	162.598	-177.129	817.616	1409.467	-229.486	881.555	1397.948	-92.063	906.935	1401.446	-353.331	962.923	976.987	-82.736	976.680	992.234	-376.205	806.096	1010.391	-178.423	812.528	1009.344	-290.420	1007.845	507.759	-87.786	942.476	502.262	-354.853	1013.881	513.976	-198.851	937.539	513.063	-247.588	731.337	202.373	-128.586	869.130	90.244	-321.399	749.144	196.771	-210.615	884.436	99.503	-239.287	678.055	232.752	-180.971	801.843	60.537	-273.033	785.001	80.939	-166.350	1000.519	41.589	-273.601	758.055	112.937	-119.746	962.607	38.269	-328.069	1009.936	788.376	-70.874	1007.769	681.656	-59.156	900.663	767.488	-44.921	1002.118	769.144	-380.056	976.043	658.735	-392.976	892.826	766.022	-418.240	927.056	406.258	-94.261	867.001	295.156	-94.991	825.543	348.904	-90.478	924.491	374.582	-351.990	931.287	249.041	-348.996	868.497	264.165	-358.132	881.104	912.270	-147.083	891.199	922.550	-324.209	834.628	1115.695	5.022	896.224	1116.959	-485.030	823.916	1100.824	-76.971	886.137	1093.892	-406.863	895.452	879.177	-1.826	997.861	902.156	-488.248	823.545	871.894	13.033	931.893	883.450	-504.002
